<svg xmlns="http://www.w3.org/2000/svg" xmlns:xlink="http://www.w3.org/1999/xlink" width="500" zoomAndPan="magnify" viewBox="0 0 375 374.999991" height="500" preserveAspectRatio="xMidYMid meet" version="1.0"><defs><clipPath id="8580a64538"><path d="M 71.730469 68.457031 L 166 68.457031 L 166 127 L 71.730469 127 Z M 71.730469 68.457031 " clip-rule="nonzero"/></clipPath><clipPath id="44248407b6"><path d="M 71.730469 94 L 168 94 L 168 306.207031 L 71.730469 306.207031 Z M 71.730469 94 " clip-rule="nonzero"/></clipPath><clipPath id="ebfa916cbd"><path d="M 160 198 L 258 198 L 258 306.207031 L 160 306.207031 Z M 160 198 " clip-rule="nonzero"/></clipPath><clipPath id="90d3cc2555"><path d="M 251 120 L 303.480469 120 L 303.480469 205 L 251 205 Z M 251 120 " clip-rule="nonzero"/></clipPath><clipPath id="b8539a0560"><path d="M 206 95 L 303.480469 95 L 303.480469 153 L 206 153 Z M 206 95 " clip-rule="nonzero"/></clipPath></defs><g clip-path="url(#8580a64538)"><path fill="#ef0a1b" d="M 119.828125 126.828125 C 119.261719 126.828125 118.734375 126.683594 118.242188 126.402344 L 117.933594 126.222656 L 73.378906 100.453125 C 73.140625 100.3125 72.925781 100.148438 72.730469 99.953125 C 72.535156 99.757812 72.367188 99.542969 72.230469 99.304688 C 72.089844 99.066406 71.984375 98.816406 71.914062 98.550781 C 71.839844 98.285156 71.804688 98.015625 71.800781 97.742188 C 71.800781 97.464844 71.832031 97.195312 71.902344 96.929688 C 71.972656 96.664062 72.074219 96.410156 72.207031 96.171875 C 72.34375 95.929688 72.507812 95.710938 72.699219 95.515625 C 72.890625 95.320312 73.105469 95.148438 73.34375 95.007812 L 116.84375 69.058594 C 117.34375 68.757812 117.886719 68.609375 118.472656 68.609375 C 119.054688 68.609375 119.597656 68.761719 120.097656 69.058594 L 164.429688 95.574219 C 164.664062 95.714844 164.878906 95.882812 165.070312 96.078125 C 165.261719 96.273438 165.421875 96.492188 165.558594 96.730469 C 165.691406 96.96875 165.792969 97.21875 165.863281 97.484375 C 165.933594 97.75 165.96875 98.019531 165.96875 98.292969 C 165.964844 98.566406 165.929688 98.832031 165.859375 99.097656 C 165.789062 99.363281 165.683594 99.613281 165.550781 99.851562 C 165.414062 100.089844 165.25 100.304688 165.054688 100.5 C 164.863281 100.695312 164.648438 100.863281 164.414062 101 L 121.441406 126.386719 C 120.945312 126.679688 120.40625 126.828125 119.828125 126.828125 Z M 81.207031 97.675781 L 119.8125 120.007812 L 156.613281 98.265625 L 118.46875 75.449219 Z M 81.207031 97.675781 " fill-opacity="1" fill-rule="nonzero"/></g><g clip-path="url(#44248407b6)"><path fill="#ef0a1b" d="M 164.066406 306.207031 C 163.519531 306.207031 163.007812 306.074219 162.53125 305.808594 L 73.429688 256.460938 C 72.929688 256.179688 72.53125 255.792969 72.238281 255.300781 C 71.945312 254.804688 71.800781 254.273438 71.800781 253.699219 L 71.800781 97.71875 C 71.800781 97.152344 71.941406 96.628906 72.226562 96.136719 C 72.507812 95.648438 72.894531 95.261719 73.386719 94.980469 C 73.878906 94.699219 74.40625 94.558594 74.972656 94.558594 C 75.539062 94.558594 76.066406 94.703125 76.554688 94.984375 L 121.105469 120.753906 C 121.59375 121.035156 121.980469 121.421875 122.261719 121.910156 C 122.542969 122.398438 122.683594 122.921875 122.683594 123.488281 L 122.683594 225.683594 L 165.660156 250.664062 C 166.148438 250.945312 166.53125 251.332031 166.8125 251.820312 C 167.09375 252.304688 167.234375 252.832031 167.234375 253.394531 L 167.234375 303.046875 C 167.234375 303.464844 167.152344 303.871094 166.992188 304.257812 C 166.832031 304.644531 166.605469 304.984375 166.308594 305.28125 C 166.011719 305.578125 165.667969 305.804688 165.28125 305.964844 C 164.890625 306.125 164.488281 306.207031 164.066406 306.207031 Z M 78.132812 251.839844 L 160.902344 297.679688 L 160.902344 255.207031 L 117.925781 230.230469 C 117.4375 229.945312 117.054688 229.5625 116.773438 229.074219 C 116.492188 228.585938 116.351562 228.0625 116.351562 227.5 L 116.351562 125.308594 L 78.132812 103.203125 Z M 78.132812 251.839844 " fill-opacity="1" fill-rule="nonzero"/></g><path fill="#ef0a1b" d="M 119.515625 230.660156 C 119.097656 230.660156 118.695312 230.578125 118.304688 230.417969 C 117.917969 230.257812 117.574219 230.03125 117.277344 229.734375 C 116.980469 229.4375 116.753906 229.09375 116.59375 228.707031 C 116.429688 228.320312 116.351562 227.917969 116.351562 227.5 L 116.351562 123.488281 C 116.351562 123.089844 116.421875 122.710938 116.566406 122.339844 C 116.710938 121.972656 116.917969 121.640625 117.183594 121.351562 C 117.453125 121.058594 117.765625 120.828125 118.121094 120.652344 C 118.476562 120.476562 118.851562 120.375 119.246094 120.339844 L 161.1875 95.5625 C 161.425781 95.421875 161.679688 95.316406 161.949219 95.242188 C 162.214844 95.164062 162.488281 95.128906 162.765625 95.125 C 163.042969 95.121094 163.316406 95.152344 163.585938 95.222656 C 163.855469 95.289062 164.109375 95.394531 164.351562 95.527344 C 164.59375 95.664062 164.816406 95.828125 165.015625 96.023438 C 165.210938 96.214844 165.382812 96.433594 165.523438 96.671875 C 165.667969 96.910156 165.773438 97.160156 165.851562 97.429688 C 165.925781 97.695312 165.964844 97.964844 165.96875 98.242188 L 167.234375 200.960938 C 167.242188 201.523438 167.105469 202.050781 166.832031 202.542969 C 166.554688 203.035156 166.175781 203.421875 165.691406 203.710938 L 121.140625 230.214844 C 120.640625 230.511719 120.097656 230.660156 119.519531 230.660156 Z M 122.683594 125.652344 L 122.683594 221.9375 L 160.878906 199.214844 L 159.703125 103.785156 Z M 122.683594 125.652344 " fill-opacity="1" fill-rule="nonzero"/><g clip-path="url(#ebfa916cbd)"><path fill="#ef0a1b" d="M 164.066406 306.207031 C 163.648438 306.207031 163.246094 306.125 162.855469 305.964844 C 162.46875 305.804688 162.125 305.578125 161.828125 305.28125 C 161.53125 304.984375 161.304688 304.644531 161.140625 304.257812 C 160.980469 303.871094 160.902344 303.464844 160.902344 303.046875 L 160.902344 253.394531 C 160.902344 252.828125 161.042969 252.296875 161.328125 251.808594 C 161.613281 251.320312 162.003906 250.933594 162.496094 250.652344 L 253.175781 198.863281 C 253.417969 198.726562 253.671875 198.625 253.941406 198.550781 C 254.207031 198.480469 254.480469 198.445312 254.757812 198.449219 C 255.035156 198.449219 255.308594 198.484375 255.578125 198.558594 C 255.84375 198.628906 256.097656 198.734375 256.339844 198.875 C 256.578125 199.011719 256.796875 199.179688 256.992188 199.375 C 257.1875 199.570312 257.355469 199.789062 257.492188 200.03125 C 257.632812 200.269531 257.738281 200.523438 257.808594 200.789062 C 257.878906 201.058594 257.917969 201.328125 257.917969 201.605469 L 257.917969 253.394531 C 257.917969 253.96875 257.769531 254.507812 257.472656 255.003906 C 257.179688 255.5 256.78125 255.886719 256.273438 256.164062 L 165.589844 305.816406 C 165.117188 306.078125 164.609375 306.207031 164.066406 306.207031 Z M 167.234375 255.226562 L 167.234375 297.710938 L 251.582031 251.523438 L 251.582031 207.054688 Z M 167.234375 255.226562 " fill-opacity="1" fill-rule="nonzero"/></g><path fill="#ef0a1b" d="M 164.066406 256.550781 C 163.496094 256.550781 162.964844 256.410156 162.472656 256.121094 L 117.925781 230.230469 C 117.6875 230.089844 117.46875 229.925781 117.273438 229.730469 C 117.082031 229.535156 116.914062 229.320312 116.777344 229.082031 C 116.640625 228.84375 116.535156 228.589844 116.460938 228.324219 C 116.390625 228.0625 116.351562 227.789062 116.351562 227.515625 C 116.351562 227.242188 116.382812 226.96875 116.453125 226.703125 C 116.523438 226.4375 116.625 226.1875 116.761719 225.945312 C 116.894531 225.707031 117.058594 225.488281 117.253906 225.292969 C 117.445312 225.097656 117.660156 224.925781 117.894531 224.785156 L 162.445312 198.285156 C 162.480469 198.265625 162.511719 198.246094 162.546875 198.226562 L 207.738281 173.550781 C 208.214844 173.292969 208.722656 173.160156 209.269531 173.164062 C 209.8125 173.164062 210.320312 173.300781 210.796875 173.5625 L 256.289062 198.847656 C 256.789062 199.125 257.183594 199.507812 257.476562 199.996094 C 257.765625 200.488281 257.914062 201.019531 257.917969 201.589844 C 257.917969 202.15625 257.777344 202.6875 257.492188 203.183594 C 257.210938 203.675781 256.820312 204.066406 256.324219 204.347656 L 165.640625 256.132812 C 165.152344 256.414062 164.628906 256.550781 164.066406 256.550781 Z M 125.753906 227.46875 L 164.082031 249.746094 L 248.308594 201.644531 L 209.242188 179.933594 L 165.640625 203.742188 Z M 125.753906 227.46875 " fill-opacity="1" fill-rule="nonzero"/><path fill="#ef0a1b" d="M 254.75 204.765625 C 254.203125 204.765625 253.6875 204.632812 253.207031 204.367188 L 207.714844 179.082031 C 207.210938 178.804688 206.816406 178.414062 206.523438 177.917969 C 206.234375 177.421875 206.089844 176.886719 206.089844 176.3125 L 206.242188 123.660156 C 206.242188 123.382812 206.28125 123.109375 206.351562 122.84375 C 206.425781 122.578125 206.53125 122.324219 206.667969 122.085938 C 206.808594 121.847656 206.972656 121.628906 207.171875 121.433594 C 207.367188 121.238281 207.585938 121.070312 207.824219 120.933594 C 208.0625 120.792969 208.316406 120.691406 208.585938 120.617188 C 208.851562 120.546875 209.125 120.507812 209.402344 120.507812 C 209.675781 120.507812 209.949219 120.542969 210.21875 120.613281 C 210.484375 120.683594 210.738281 120.789062 210.980469 120.925781 L 256.320312 146.773438 C 256.8125 147.054688 257.203125 147.441406 257.488281 147.929688 C 257.773438 148.421875 257.914062 148.949219 257.914062 149.515625 L 257.914062 201.605469 C 257.914062 202.027344 257.835938 202.429688 257.675781 202.816406 C 257.515625 203.203125 257.285156 203.542969 256.988281 203.839844 C 256.691406 204.136719 256.347656 204.367188 255.960938 204.527344 C 255.574219 204.6875 255.167969 204.765625 254.75 204.765625 Z M 212.425781 174.46875 L 251.582031 196.230469 L 251.582031 151.351562 L 212.558594 129.101562 Z M 212.425781 174.46875 " fill-opacity="1" fill-rule="nonzero"/><g clip-path="url(#90d3cc2555)"><path fill="#ef0a1b" d="M 254.75 204.765625 C 254.328125 204.765625 253.925781 204.683594 253.539062 204.523438 C 253.148438 204.363281 252.808594 204.136719 252.511719 203.839844 C 252.214844 203.542969 251.984375 203.203125 251.824219 202.816406 C 251.664062 202.429688 251.582031 202.023438 251.582031 201.605469 L 251.582031 149.515625 C 251.582031 148.949219 251.726562 148.421875 252.011719 147.929688 C 252.296875 147.4375 252.6875 147.054688 253.183594 146.773438 L 298.675781 120.921875 C 298.917969 120.785156 299.171875 120.683594 299.4375 120.613281 C 299.707031 120.542969 299.980469 120.507812 300.257812 120.507812 C 300.535156 120.511719 300.804688 120.546875 301.074219 120.621094 C 301.339844 120.691406 301.59375 120.796875 301.835938 120.9375 C 302.074219 121.074219 302.292969 121.242188 302.488281 121.4375 C 302.683594 121.636719 302.847656 121.851562 302.988281 122.09375 C 303.125 122.332031 303.230469 122.585938 303.300781 122.851562 C 303.375 123.121094 303.410156 123.390625 303.410156 123.667969 L 303.410156 176.324219 C 303.410156 176.894531 303.265625 177.429688 302.972656 177.921875 C 302.683594 178.417969 302.285156 178.804688 301.785156 179.082031 L 256.289062 204.367188 C 255.8125 204.632812 255.296875 204.765625 254.75 204.765625 Z M 257.914062 151.351562 L 257.914062 196.230469 L 297.078125 174.464844 L 297.078125 129.101562 Z M 257.914062 151.351562 " fill-opacity="1" fill-rule="nonzero"/></g><g clip-path="url(#b8539a0560)"><path fill="#ef0a1b" d="M 254.75 152.675781 C 254.1875 152.675781 253.664062 152.535156 253.179688 152.257812 L 207.839844 126.410156 C 207.34375 126.128906 206.953125 125.742188 206.667969 125.246094 C 206.382812 124.753906 206.242188 124.222656 206.242188 123.65625 C 206.246094 123.085938 206.390625 122.554688 206.679688 122.066406 C 206.96875 121.574219 207.363281 121.191406 207.859375 120.914062 L 253.199219 95.527344 C 253.679688 95.257812 254.195312 95.125 254.746094 95.125 C 255.296875 95.125 255.8125 95.257812 256.296875 95.527344 L 301.789062 120.910156 C 302.289062 121.1875 302.679688 121.574219 302.972656 122.0625 C 303.261719 122.554688 303.40625 123.085938 303.410156 123.65625 C 303.410156 124.226562 303.269531 124.757812 302.984375 125.25 C 302.699219 125.742188 302.304688 126.128906 301.808594 126.414062 L 256.316406 152.261719 C 255.832031 152.539062 255.308594 152.675781 254.75 152.675781 Z M 215.835938 123.691406 L 254.75 145.878906 L 293.800781 123.691406 L 254.75 101.902344 Z M 215.835938 123.691406 " fill-opacity="1" fill-rule="nonzero"/></g></svg>