<svg xmlns="http://www.w3.org/2000/svg" xmlns:xlink="http://www.w3.org/1999/xlink" width="500" zoomAndPan="magnify" viewBox="0 0 375 374.999991" height="500" preserveAspectRatio="xMidYMid meet" version="1.0"><defs><clipPath id="fbb5e9fe40"><path d="M 41 206 L 162 206 L 162 265.222656 L 41 265.222656 Z M 41 206 " clip-rule="nonzero"/></clipPath></defs><g clip-path="url(#fbb5e9fe40)"><path fill="#00618a" d="M 41.027344 251.808594 L 50.667969 251.808594 L 50.667969 213.664062 L 65.589844 246.929688 C 67.351562 250.941406 69.761719 252.382812 74.488281 252.382812 C 79.214844 252.382812 81.535156 250.957031 83.296875 246.929688 L 98.222656 213.664062 L 98.222656 251.824219 L 107.863281 251.824219 L 107.863281 213.726562 C 107.863281 210.011719 106.375 208.214844 103.320312 207.285156 C 95.996094 204.992188 91.082031 206.976562 88.859375 211.933594 L 74.214844 244.761719 L 60.03125 211.917969 C 57.898438 206.960938 52.894531 204.980469 45.570312 207.269531 C 42.511719 208.199219 41.027344 210 41.027344 213.714844 Z M 115.875 220.75 L 125.511719 220.75 L 125.511719 241.777344 C 125.421875 242.917969 125.878906 245.601562 131.160156 245.679688 C 133.851562 245.722656 151.953125 245.679688 152.121094 245.679688 L 152.121094 220.648438 L 161.78125 220.648438 C 161.824219 220.648438 161.769531 254.78125 161.769531 254.925781 C 161.824219 263.347656 151.351562 265.175781 146.523438 265.316406 L 116.085938 265.316406 L 116.085938 258.816406 L 146.578125 258.8125 C 152.78125 258.15625 152.050781 255.066406 152.050781 254.023438 L 152.050781 251.488281 L 131.5625 251.488281 C 122.027344 251.402344 115.960938 247.230469 115.882812 242.433594 C 115.875 242.003906 116.089844 220.957031 115.878906 220.75 Z M 115.875 220.75 " fill-opacity="1" fill-rule="nonzero"/></g><path fill="#e48e00" d="M 169.210938 251.808594 L 196.925781 251.808594 C 200.167969 251.808594 203.324219 251.128906 205.828125 249.949219 C 210 248.03125 212.039062 245.429688 212.039062 242.023438 L 212.039062 234.960938 C 212.039062 232.171875 209.722656 229.570312 205.179688 227.835938 C 202.769531 226.90625 199.804688 226.414062 196.929688 226.414062 L 185.25 226.414062 C 181.359375 226.414062 179.503906 225.234375 179.039062 222.632812 C 178.949219 222.324219 178.949219 222.0625 178.949219 221.765625 L 178.949219 217.371094 C 178.949219 217.121094 178.949219 216.871094 179.039062 216.5625 C 179.503906 214.582031 180.523438 214.023438 183.953125 213.699219 C 184.230469 213.699219 184.601562 213.636719 184.882812 213.636719 L 212.410156 213.636719 L 212.410156 207.195312 L 185.34375 207.195312 C 181.453125 207.195312 179.414062 207.441406 177.558594 208 C 171.804688 209.796875 169.300781 212.660156 169.300781 217.617188 L 169.300781 223.253906 C 169.300781 227.589844 174.214844 231.308594 182.460938 232.175781 C 183.390625 232.234375 184.316406 232.296875 185.242188 232.296875 L 195.253906 232.296875 C 195.625 232.296875 195.996094 232.296875 196.273438 232.359375 C 199.332031 232.609375 200.632812 233.164062 201.558594 234.28125 C 202.128906 234.851562 202.300781 235.398438 202.300781 236 L 202.300781 241.636719 C 202.300781 242.316406 201.835938 243.183594 200.910156 243.925781 C 200.074219 244.671875 198.683594 245.164062 196.832031 245.289062 C 196.460938 245.289062 196.183594 245.351562 195.8125 245.351562 L 169.207031 245.351562 L 169.207031 251.792969 Z M 272.171875 240.597656 C 272.171875 247.226562 277.085938 250.941406 287.003906 251.6875 C 287.929688 251.757812 288.855469 251.800781 289.785156 251.808594 L 314.90625 251.808594 L 314.90625 245.367188 L 289.597656 245.367188 C 283.945312 245.367188 281.8125 243.941406 281.8125 240.535156 L 281.8125 207.207031 L 272.171875 207.207031 Z M 218.1875 240.933594 L 218.1875 217.96875 C 218.1875 212.132812 222.273438 208.59375 230.355469 207.476562 C 231.21875 207.355469 232.085938 207.292969 232.957031 207.292969 L 251.253906 207.292969 C 252.15625 207.292969 253.054688 207.355469 253.949219 207.476562 C 262.03125 208.59375 266.117188 212.132812 266.117188 217.96875 L 266.117188 240.933594 C 266.117188 245.667969 264.382812 248.199219 260.378906 249.851562 L 269.875 258.445312 L 258.683594 258.445312 L 251 251.492188 L 243.265625 251.984375 L 232.957031 251.984375 C 231.191406 251.984375 229.335938 251.734375 227.289062 251.175781 C 221.148438 249.5 218.1875 246.273438 218.1875 240.933594 Z M 228.59375 240.359375 C 228.59375 240.671875 228.6875 240.980469 228.777344 241.355469 C 229.351562 244.023438 231.84375 245.515625 235.636719 245.515625 L 244.394531 245.515625 L 236.351562 238.234375 L 247.542969 238.234375 L 254.546875 244.582031 C 255.839844 243.890625 256.6875 242.835938 256.972656 241.480469 C 257.066406 241.171875 257.066406 240.859375 257.066406 240.546875 L 257.066406 218.527344 C 257.066406 218.28125 257.066406 217.957031 256.972656 217.660156 C 256.402344 215.175781 253.910156 213.75 250.195312 213.75 L 235.664062 213.75 C 231.375 213.75 228.605469 215.609375 228.605469 218.527344 L 228.605469 240.378906 Z M 228.59375 240.359375 " fill-opacity="1" fill-rule="nonzero"/><path fill="#00618a" d="M 323.378906 196.519531 C 317.457031 196.359375 312.929688 196.914062 309.058594 198.546875 C 307.957031 199.011719 306.207031 199.023438 306.027344 200.40625 C 306.628906 201.042969 306.726562 201.988281 307.203125 202.769531 C 308.128906 204.269531 309.691406 206.277344 311.082031 207.328125 C 312.601562 208.480469 314.167969 209.710938 315.800781 210.710938 C 318.699219 212.484375 321.9375 213.496094 324.730469 215.269531 C 326.375 216.316406 328.011719 217.632812 329.617188 218.816406 C 330.410156 219.402344 330.945312 220.308594 331.972656 220.671875 L 331.972656 220.503906 C 331.429688 219.8125 331.292969 218.863281 330.792969 218.140625 L 328.605469 215.945312 C 326.460938 213.082031 323.742188 210.59375 320.851562 208.511719 C 318.546875 206.855469 313.390625 204.613281 312.425781 201.925781 L 312.257812 201.757812 C 313.894531 201.570312 315.808594 200.976562 317.316406 200.574219 C 319.851562 199.894531 322.113281 200.070312 324.730469 199.394531 L 328.269531 198.378906 L 328.269531 197.703125 C 326.949219 196.34375 326.003906 194.542969 324.5625 193.3125 C 320.792969 190.089844 316.671875 186.875 312.433594 184.1875 C 310.082031 182.699219 307.175781 181.734375 304.683594 180.472656 C 303.84375 180.046875 302.371094 179.828125 301.816406 179.121094 C 300.507812 177.445312 299.796875 175.324219 298.785156 173.390625 C 296.671875 169.308594 294.59375 164.851562 292.71875 160.554688 C 291.441406 157.625 290.605469 154.738281 289.011719 152.109375 C 281.363281 139.5 273.125 131.890625 260.371094 124.410156 C 257.65625 122.820312 254.386719 122.191406 250.933594 121.371094 L 245.371094 121.03125 C 244.238281 120.558594 243.0625 119.167969 242 118.496094 C 237.773438 115.820312 226.933594 110 223.804688 117.636719 C 221.828125 122.46875 226.757812 127.179688 228.519531 129.628906 C 229.757812 131.347656 231.34375 133.273438 232.226562 135.203125 C 232.808594 136.472656 232.910156 137.746094 233.40625 139.089844 C 234.632812 142.382812 235.695312 145.996094 237.28125 149.054688 C 238.082031 150.601562 238.964844 152.230469 239.976562 153.617188 C 240.597656 154.464844 241.664062 154.839844 241.832031 156.152344 C 240.789062 157.613281 240.730469 159.875 240.144531 161.726562 C 237.511719 170.046875 238.503906 180.394531 242.335938 186.554688 C 243.511719 188.445312 246.277344 192.5 250.085938 190.945312 C 253.414062 189.585938 252.65625 185.375 253.625 181.65625 C 253.839844 180.8125 253.707031 180.195312 254.132812 179.628906 L 254.132812 179.800781 L 257.164062 185.878906 C 259.40625 189.503906 263.394531 193.289062 266.769531 195.847656 C 268.519531 197.171875 269.910156 199.464844 272.160156 200.238281 L 272.160156 200.070312 L 271.992188 200.070312 C 271.554688 199.382812 270.867188 199.097656 270.304688 198.550781 C 268.988281 197.253906 267.519531 195.644531 266.429688 194.160156 C 263.359375 189.980469 260.644531 185.410156 258.175781 180.648438 C 256.996094 178.375 255.96875 175.867188 254.972656 173.554688 C 254.589844 172.660156 254.59375 171.3125 253.796875 170.851562 C 252.707031 172.546875 251.097656 173.914062 250.257812 175.917969 C 248.90625 179.117188 248.734375 183.019531 248.234375 187.066406 C 247.9375 187.171875 248.070312 187.097656 247.898438 187.234375 C 245.550781 186.667969 244.726562 184.246094 243.855469 182.167969 C 241.648438 176.910156 241.238281 168.453125 243.179688 162.40625 C 243.679688 160.84375 245.953125 155.914062 245.03125 154.46875 C 244.59375 153.027344 243.148438 152.175781 242.335938 151.085938 C 241.335938 149.726562 240.332031 147.929688 239.640625 146.359375 C 237.835938 142.261719 236.992188 137.664062 235.089844 133.523438 C 234.183594 131.542969 232.648438 129.539062 231.386719 127.792969 C 229.988281 125.84375 228.421875 124.40625 227.34375 122.0625 C 226.957031 121.226562 226.433594 119.886719 227.003906 119.023438 C 227.058594 118.769531 227.179688 118.550781 227.363281 118.367188 C 227.546875 118.183594 227.761719 118.066406 228.015625 118.007812 C 228.992188 117.253906 231.714844 118.261719 232.734375 118.6875 C 235.433594 119.8125 237.691406 120.882812 239.980469 122.402344 C 241.082031 123.117188 242.191406 124.542969 243.519531 124.9375 L 245.03125 124.9375 C 247.40625 125.484375 250.0625 125.109375 252.277344 125.78125 C 256.195312 126.976562 259.703125 128.832031 262.890625 130.847656 C 272.605469 136.996094 280.542969 145.746094 285.976562 156.199219 C 286.851562 157.878906 287.230469 159.484375 288 161.265625 C 289.550781 164.847656 291.507812 168.558594 293.054688 172.074219 C 294.597656 175.582031 296.097656 179.121094 298.277344 182.039062 C 299.421875 183.574219 303.847656 184.398438 305.859375 185.25 C 307.269531 185.84375 309.578125 186.46875 310.914062 187.273438 C 313.464844 188.816406 315.9375 190.65625 318.328125 192.34375 C 319.527344 193.191406 323.203125 195.042969 323.386719 196.566406 Z M 323.378906 196.519531 " fill-opacity="1" fill-rule="nonzero"/><path fill="#00618a" d="M 248.070312 132.167969 C 246.835938 132.148438 245.960938 132.304688 245.039062 132.507812 L 245.039062 132.675781 L 245.207031 132.675781 C 245.792969 133.890625 246.835938 134.671875 247.5625 135.71875 L 249.25 139.261719 L 249.417969 139.09375 C 250.460938 138.355469 250.9375 137.179688 250.933594 135.378906 C 250.511719 134.9375 250.453125 134.382812 250.089844 133.855469 C 249.609375 133.15625 248.660156 132.757812 248.066406 132.167969 Z M 248.070312 132.167969 " fill-opacity="1" fill-rule="evenodd"/><path fill="#e48e00" d="M 319.4375 245.183594 C 319.4375 249.4375 322.789062 252.304688 326.542969 252.304688 C 330.292969 252.304688 333.644531 249.4375 333.644531 245.183594 C 333.644531 240.929688 330.292969 238.0625 326.542969 238.0625 C 322.789062 238.0625 319.4375 240.929688 319.4375 245.183594 Z M 332.054688 245.183594 C 332.054688 248.414062 329.589844 250.824219 326.539062 250.824219 C 323.453125 250.824219 321.023438 248.414062 321.023438 245.183594 C 321.023438 241.957031 323.449219 239.542969 326.539062 239.542969 C 329.589844 239.542969 332.054688 241.957031 332.054688 245.183594 Z M 328.453125 249.25 L 330.042969 249.25 L 327.714844 245.679688 C 328.964844 245.546875 329.910156 244.9375 329.910156 243.457031 C 329.910156 241.804688 328.867188 241.121094 326.859375 241.121094 L 323.695312 241.121094 L 323.695312 249.25 L 325.0625 249.25 L 325.0625 245.738281 L 326.328125 245.738281 Z M 325.0625 244.59375 L 325.0625 242.261719 L 326.632812 242.261719 C 327.445312 242.261719 328.433594 242.410156 328.433594 243.363281 C 328.433594 244.5 327.542969 244.597656 326.519531 244.597656 L 325.0625 244.597656 Z M 325.0625 244.59375 " fill-opacity="1" fill-rule="evenodd"/></svg>