<svg xmlns="http://www.w3.org/2000/svg" xmlns:xlink="http://www.w3.org/1999/xlink" width="500" zoomAndPan="magnify" viewBox="0 0 375 374.999991" height="500" preserveAspectRatio="xMidYMid meet" version="1.0"><defs><clipPath id="7f406c8ea1"><path d="M 69.84375 187 L 75 187 L 75 192 L 69.84375 192 Z M 69.84375 187 " clip-rule="nonzero"/></clipPath></defs><path fill="#f0c020" d="M 297.488281 157.042969 C 299.753906 166.628906 300.875 176.347656 300.855469 186.199219 C 300.835938 196.050781 299.671875 205.761719 297.371094 215.339844 C 297.050781 216.695312 296.621094 218.007812 296.082031 219.289062 C 295.542969 220.570312 294.898438 221.796875 294.152344 222.96875 C 293.40625 224.140625 292.570312 225.242188 291.636719 226.273438 C 290.707031 227.304688 289.695312 228.25 288.601562 229.113281 C 287.511719 229.976562 286.355469 230.742188 285.136719 231.410156 C 283.917969 232.078125 282.648438 232.640625 281.335938 233.097656 C 280.019531 233.550781 278.675781 233.894531 277.304688 234.125 C 275.933594 234.359375 274.550781 234.472656 273.160156 234.472656 L 235.195312 234.472656 L 235.195312 272.359375 C 235.195312 283.121094 228.179688 293.660156 215.484375 296.640625 C 205.976562 298.875 196.339844 299.988281 186.570312 299.992188 C 176.804688 299.992188 167.167969 298.875 157.65625 296.648438 C 144.988281 293.675781 137.917969 283.179688 137.917969 272.359375 L 137.917969 210.753906 C 137.917969 209.941406 137.957031 209.132812 138.039062 208.324219 C 138.117188 207.515625 138.238281 206.710938 138.394531 205.914062 C 138.554688 205.117188 138.753906 204.328125 138.988281 203.550781 C 139.226562 202.773438 139.5 202.007812 139.8125 201.257812 C 140.121094 200.507812 140.472656 199.773438 140.855469 199.058594 C 141.238281 198.339844 141.65625 197.644531 142.109375 196.96875 C 142.5625 196.292969 143.046875 195.640625 143.5625 195.011719 C 144.082031 194.382812 144.625 193.78125 145.203125 193.207031 C 145.777344 192.632812 146.382812 192.085938 147.011719 191.570312 C 147.640625 191.054688 148.292969 190.574219 148.972656 190.121094 C 149.648438 189.667969 150.347656 189.25 151.066406 188.867188 C 151.785156 188.484375 152.519531 188.136719 153.273438 187.828125 C 154.023438 187.515625 154.789062 187.242188 155.570312 187.007812 C 156.351562 186.769531 157.140625 186.574219 157.9375 186.414062 C 158.738281 186.257812 159.542969 186.136719 160.351562 186.058594 C 161.164062 185.976562 161.976562 185.9375 162.789062 185.9375 L 210.320312 185.9375 C 211.136719 185.9375 211.949219 185.898438 212.757812 185.820312 C 213.570312 185.738281 214.375 185.621094 215.175781 185.460938 C 215.972656 185.304688 216.761719 185.105469 217.542969 184.871094 C 218.320312 184.632812 219.085938 184.359375 219.839844 184.050781 C 220.59375 183.738281 221.328125 183.390625 222.046875 183.007812 C 222.765625 182.625 223.460938 182.207031 224.140625 181.757812 C 224.816406 181.304688 225.46875 180.820312 226.101562 180.304688 C 226.730469 179.789062 227.332031 179.246094 227.910156 178.671875 C 228.484375 178.09375 229.03125 177.492188 229.546875 176.867188 C 230.0625 176.238281 230.550781 175.585938 231 174.910156 C 231.453125 174.234375 231.871094 173.539062 232.257812 172.820312 C 232.640625 172.105469 232.988281 171.371094 233.300781 170.621094 C 233.613281 169.867188 233.886719 169.105469 234.121094 168.328125 C 234.359375 167.550781 234.558594 166.761719 234.714844 165.964844 C 234.875 165.167969 234.996094 164.363281 235.074219 163.554688 C 235.15625 162.746094 235.195312 161.9375 235.195312 161.125 L 235.195312 137.410156 L 273.160156 137.410156 C 274.574219 137.410156 275.976562 137.527344 277.371094 137.765625 C 278.765625 138.003906 280.128906 138.359375 281.460938 138.828125 C 282.792969 139.296875 284.078125 139.875 285.308594 140.566406 C 286.542969 141.253906 287.710938 142.039062 288.808594 142.929688 C 289.910156 143.816406 290.925781 144.789062 291.855469 145.847656 C 292.789062 146.90625 293.625 148.039062 294.363281 149.242188 C 295.105469 150.441406 295.734375 151.699219 296.261719 153.007812 C 296.785156 154.316406 297.195312 155.664062 297.488281 157.042969 Z M 297.488281 157.042969 " fill-opacity="1" fill-rule="nonzero"/><path fill="#72c1e8" d="M 235.195312 99.53125 L 235.195312 161.125 C 235.195312 161.9375 235.15625 162.746094 235.074219 163.554688 C 234.996094 164.367188 234.875 165.167969 234.714844 165.964844 C 234.558594 166.761719 234.359375 167.550781 234.125 168.328125 C 233.886719 169.105469 233.613281 169.871094 233.300781 170.621094 C 232.988281 171.371094 232.640625 172.105469 232.257812 172.824219 C 231.875 173.539062 231.457031 174.234375 231.003906 174.910156 C 230.550781 175.585938 230.066406 176.238281 229.546875 176.867188 C 229.03125 177.496094 228.484375 178.097656 227.910156 178.671875 C 227.332031 179.246094 226.730469 179.792969 226.101562 180.308594 C 225.472656 180.824219 224.816406 181.308594 224.140625 181.757812 C 223.460938 182.210938 222.765625 182.628906 222.046875 183.011719 C 221.328125 183.394531 220.59375 183.742188 219.839844 184.054688 C 219.085938 184.363281 218.320312 184.636719 217.542969 184.875 C 216.761719 185.109375 215.972656 185.304688 215.171875 185.464844 C 214.375 185.625 213.570312 185.742188 212.757812 185.824219 C 211.949219 185.902344 211.136719 185.941406 210.320312 185.941406 L 162.789062 185.941406 C 161.976562 185.941406 161.164062 185.980469 160.351562 186.0625 C 159.542969 186.140625 158.738281 186.261719 157.9375 186.417969 C 157.140625 186.578125 156.351562 186.773438 155.570312 187.011719 C 154.792969 187.246094 154.027344 187.519531 153.273438 187.832031 C 152.519531 188.140625 151.785156 188.488281 151.066406 188.871094 C 150.347656 189.253906 149.648438 189.671875 148.972656 190.125 C 148.296875 190.574219 147.640625 191.058594 147.011719 191.574219 C 146.382812 192.089844 145.78125 192.636719 145.203125 193.210938 C 144.628906 193.785156 144.082031 194.386719 143.566406 195.015625 C 143.046875 195.640625 142.5625 196.292969 142.109375 196.96875 C 141.660156 197.644531 141.238281 198.339844 140.855469 199.058594 C 140.472656 199.773438 140.125 200.507812 139.8125 201.257812 C 139.5 202.011719 139.226562 202.773438 138.988281 203.550781 C 138.753906 204.328125 138.554688 205.117188 138.394531 205.914062 C 138.238281 206.710938 138.117188 207.515625 138.039062 208.324219 C 137.957031 209.132812 137.917969 209.941406 137.917969 210.753906 L 137.917969 234.46875 L 99.949219 234.46875 C 98.554688 234.46875 97.175781 234.355469 95.804688 234.125 C 94.433594 233.894531 93.089844 233.550781 91.773438 233.09375 C 90.460938 232.636719 89.195312 232.078125 87.976562 231.410156 C 86.753906 230.742188 85.601562 229.976562 84.507812 229.113281 C 83.417969 228.253906 82.40625 227.308594 81.476562 226.277344 C 80.542969 225.246094 79.707031 224.144531 78.960938 222.972656 C 78.214844 221.800781 77.570312 220.578125 77.03125 219.296875 C 76.488281 218.019531 76.058594 216.703125 75.742188 215.351562 C 73.417969 205.6875 72.253906 195.882812 72.253906 185.941406 C 72.253906 176 73.417969 166.195312 75.742188 156.527344 C 76.058594 155.175781 76.488281 153.859375 77.03125 152.582031 C 77.570312 151.304688 78.214844 150.078125 78.960938 148.90625 C 79.707031 147.734375 80.542969 146.632812 81.476562 145.601562 C 82.40625 144.570312 83.417969 143.625 84.511719 142.765625 C 85.601562 141.902344 86.757812 141.136719 87.976562 140.46875 C 89.195312 139.804688 90.460938 139.242188 91.777344 138.785156 C 93.089844 138.328125 94.433594 137.988281 95.804688 137.757812 C 97.175781 137.523438 98.558594 137.410156 99.949219 137.410156 L 137.917969 137.410156 L 137.917969 99.527344 C 137.917969 98.117188 138.035156 96.71875 138.273438 95.328125 C 138.511719 93.9375 138.867188 92.578125 139.339844 91.246094 C 139.808594 89.917969 140.390625 88.636719 141.082031 87.40625 C 141.769531 86.175781 142.558594 85.011719 143.449219 83.914062 C 144.335938 82.820312 145.3125 81.804688 146.375 80.875 C 147.4375 79.945312 148.570312 79.109375 149.773438 78.371094 C 150.980469 77.636719 152.238281 77.003906 153.550781 76.480469 C 154.863281 75.957031 156.210938 75.546875 157.59375 75.253906 C 167.097656 73.019531 176.730469 71.902344 186.496094 71.898438 C 196.257812 71.890625 205.894531 73.003906 215.402344 75.226562 C 228.011719 78.179688 235.195312 88.574219 235.195312 99.53125 Z M 235.195312 99.53125 " fill-opacity="1" fill-rule="nonzero"/><path fill="#ffffff" d="M 173.546875 103.761719 C 173.742188 104.234375 173.890625 104.71875 173.988281 105.21875 C 174.089844 105.714844 174.136719 106.222656 174.136719 106.730469 C 174.136719 107.238281 174.089844 107.746094 173.988281 108.242188 C 173.890625 108.742188 173.742188 109.230469 173.546875 109.699219 C 173.351562 110.171875 173.113281 110.617188 172.828125 111.039062 C 172.546875 111.464844 172.222656 111.855469 171.863281 112.214844 C 171.5 112.578125 171.109375 112.898438 170.683594 113.179688 C 170.261719 113.464844 169.8125 113.703125 169.339844 113.898438 C 168.867188 114.09375 168.382812 114.242188 167.882812 114.339844 C 167.382812 114.441406 166.875 114.488281 166.367188 114.488281 C 165.855469 114.488281 165.347656 114.441406 164.847656 114.339844 C 164.347656 114.242188 163.863281 114.09375 163.390625 113.898438 C 162.917969 113.707031 162.46875 113.464844 162.046875 113.183594 C 161.621094 112.902344 161.226562 112.578125 160.867188 112.21875 C 160.507812 111.859375 160.183594 111.46875 159.898438 111.042969 C 159.617188 110.621094 159.375 110.171875 159.179688 109.703125 C 158.984375 109.230469 158.839844 108.746094 158.738281 108.246094 C 158.640625 107.75 158.589844 107.242188 158.589844 106.734375 C 158.589844 106.226562 158.636719 105.71875 158.738281 105.222656 C 158.835938 104.722656 158.984375 104.234375 159.179688 103.765625 C 159.375 103.292969 159.613281 102.847656 159.898438 102.425781 C 160.179688 102 160.503906 101.609375 160.863281 101.25 C 161.226562 100.886719 161.617188 100.566406 162.042969 100.285156 C 162.46875 100 162.914062 99.761719 163.386719 99.566406 C 163.859375 99.371094 164.34375 99.222656 164.84375 99.125 C 165.34375 99.023438 165.851562 98.976562 166.363281 98.976562 C 166.871094 98.976562 167.378906 99.023438 167.878906 99.125 C 168.378906 99.222656 168.867188 99.371094 169.335938 99.566406 C 169.808594 99.757812 170.257812 100 170.679688 100.28125 C 171.105469 100.5625 171.5 100.886719 171.859375 101.246094 C 172.222656 101.605469 172.542969 101.996094 172.828125 102.421875 C 173.109375 102.84375 173.351562 103.292969 173.546875 103.761719 Z M 173.546875 103.761719 " fill-opacity="1" fill-rule="nonzero"/><path fill="#ffffff" d="M 214.546875 265.125 C 214.546875 265.632812 214.496094 266.136719 214.398438 266.636719 C 214.296875 267.136719 214.148438 267.621094 213.953125 268.09375 C 213.757812 268.5625 213.519531 269.007812 213.234375 269.433594 C 212.953125 269.855469 212.628906 270.246094 212.269531 270.609375 C 211.910156 270.96875 211.515625 271.289062 211.089844 271.574219 C 210.667969 271.855469 210.21875 272.09375 209.746094 272.289062 C 209.277344 272.484375 208.789062 272.632812 208.289062 272.730469 C 207.789062 272.828125 207.285156 272.878906 206.773438 272.878906 C 206.261719 272.878906 205.757812 272.828125 205.257812 272.730469 C 204.757812 272.632812 204.269531 272.484375 203.796875 272.289062 C 203.328125 272.09375 202.878906 271.855469 202.453125 271.574219 C 202.03125 271.289062 201.636719 270.96875 201.277344 270.609375 C 200.914062 270.246094 200.59375 269.855469 200.308594 269.433594 C 200.027344 269.007812 199.785156 268.5625 199.589844 268.09375 C 199.394531 267.621094 199.25 267.136719 199.148438 266.636719 C 199.050781 266.136719 199 265.632812 199 265.125 C 199 264.613281 199.050781 264.109375 199.148438 263.609375 C 199.25 263.109375 199.394531 262.625 199.589844 262.15625 C 199.785156 261.683594 200.027344 261.238281 200.308594 260.816406 C 200.59375 260.390625 200.914062 260 201.277344 259.640625 C 201.636719 259.28125 202.03125 258.957031 202.453125 258.675781 C 202.878906 258.390625 203.328125 258.152344 203.796875 257.957031 C 204.269531 257.761719 204.757812 257.617188 205.257812 257.515625 C 205.757812 257.417969 206.261719 257.367188 206.773438 257.367188 C 207.285156 257.367188 207.789062 257.417969 208.289062 257.515625 C 208.789062 257.617188 209.277344 257.761719 209.746094 257.957031 C 210.21875 258.152344 210.667969 258.390625 211.089844 258.675781 C 211.515625 258.957031 211.910156 259.28125 212.269531 259.640625 C 212.628906 260 212.953125 260.390625 213.234375 260.816406 C 213.519531 261.238281 213.757812 261.683594 213.953125 262.15625 C 214.148438 262.625 214.296875 263.109375 214.398438 263.609375 C 214.496094 264.109375 214.546875 264.613281 214.546875 265.125 Z M 214.546875 265.125 " fill-opacity="1" fill-rule="nonzero"/><path fill="#f9e5af" d="M 225.375 275.183594 C 225.066406 275.183594 224.773438 275.125 224.488281 275.007812 C 224.207031 274.890625 223.957031 274.726562 223.742188 274.511719 C 223.523438 274.292969 223.355469 274.042969 223.238281 273.761719 C 223.121094 273.480469 223.0625 273.183594 223.0625 272.878906 L 223.0625 268.402344 C 223.0625 268.097656 223.121094 267.804688 223.238281 267.519531 C 223.355469 267.238281 223.523438 266.988281 223.742188 266.773438 C 223.957031 266.558594 224.207031 266.390625 224.488281 266.273438 C 224.773438 266.15625 225.066406 266.097656 225.375 266.097656 C 225.679688 266.097656 225.976562 266.15625 226.257812 266.273438 C 226.542969 266.390625 226.792969 266.558594 227.007812 266.773438 C 227.226562 266.988281 227.390625 267.238281 227.507812 267.519531 C 227.625 267.804688 227.683594 268.097656 227.683594 268.402344 L 227.683594 272.878906 C 227.683594 273.183594 227.625 273.480469 227.507812 273.761719 C 227.390625 274.042969 227.226562 274.292969 227.007812 274.511719 C 226.792969 274.726562 226.542969 274.890625 226.257812 275.007812 C 225.976562 275.125 225.679688 275.183594 225.375 275.183594 Z M 225.375 261.488281 C 225.066406 261.488281 224.773438 261.429688 224.488281 261.3125 C 224.207031 261.195312 223.957031 261.027344 223.742188 260.8125 C 223.523438 260.59375 223.355469 260.347656 223.238281 260.0625 C 223.121094 259.78125 223.0625 259.488281 223.0625 259.179688 L 223.0625 221.5625 C 223.0625 221.253906 223.121094 220.960938 223.238281 220.679688 C 223.355469 220.394531 223.523438 220.148438 223.742188 219.929688 C 223.957031 219.714844 224.207031 219.546875 224.488281 219.429688 C 224.773438 219.3125 225.066406 219.253906 225.375 219.253906 L 273.160156 219.253906 C 273.695312 219.257812 274.230469 219.214844 274.761719 219.128906 C 275.292969 219.039062 275.816406 218.90625 276.324219 218.730469 C 276.832031 218.558594 277.324219 218.339844 277.796875 218.082031 C 278.269531 217.824219 278.714844 217.527344 279.136719 217.195312 C 279.5625 216.859375 279.953125 216.492188 280.3125 216.09375 C 280.671875 215.695312 280.996094 215.269531 281.285156 214.8125 C 281.574219 214.359375 281.820312 213.886719 282.027344 213.390625 C 282.238281 212.894531 282.402344 212.382812 282.523438 211.859375 C 284.566406 203.335938 285.585938 194.691406 285.585938 185.929688 C 285.585938 177.164062 284.566406 168.519531 282.523438 159.996094 C 282.402344 159.472656 282.234375 158.964844 282.027344 158.46875 C 281.820312 157.976562 281.570312 157.503906 281.28125 157.050781 C 280.996094 156.597656 280.671875 156.171875 280.308594 155.773438 C 279.949219 155.375 279.558594 155.007812 279.136719 154.675781 C 278.714844 154.34375 278.265625 154.050781 277.796875 153.792969 C 277.324219 153.535156 276.832031 153.320312 276.324219 153.144531 C 275.816406 152.972656 275.296875 152.839844 274.765625 152.753906 C 274.238281 152.667969 273.703125 152.625 273.164062 152.628906 C 272.859375 152.628906 272.5625 152.570312 272.28125 152.453125 C 271.996094 152.335938 271.746094 152.167969 271.53125 151.953125 C 271.3125 151.734375 271.148438 151.488281 271.03125 151.203125 C 270.914062 150.921875 270.855469 150.628906 270.855469 150.320312 C 270.855469 150.015625 270.914062 149.722656 271.03125 149.441406 C 271.148438 149.15625 271.3125 148.90625 271.53125 148.691406 C 271.746094 148.476562 271.996094 148.308594 272.28125 148.191406 C 272.5625 148.074219 272.859375 148.015625 273.164062 148.015625 C 279.378906 148.015625 285.363281 151.925781 287.136719 159.425781 C 289.203125 168.222656 290.230469 177.136719 290.210938 186.175781 C 290.191406 195.210938 289.132812 204.121094 287.027344 212.910156 C 286.847656 213.6875 286.601562 214.441406 286.296875 215.175781 C 285.988281 215.910156 285.621094 216.613281 285.195312 217.285156 C 284.769531 217.957031 284.289062 218.589844 283.753906 219.183594 C 283.222656 219.773438 282.640625 220.316406 282.015625 220.808594 C 281.390625 221.304688 280.730469 221.742188 280.03125 222.125 C 279.332031 222.507812 278.605469 222.828125 277.851562 223.089844 C 277.097656 223.347656 276.328125 223.542969 275.539062 223.675781 C 274.753906 223.804688 273.960938 223.867188 273.164062 223.863281 L 227.691406 223.863281 L 227.691406 259.179688 C 227.691406 259.484375 227.632812 259.78125 227.515625 260.0625 C 227.394531 260.347656 227.230469 260.597656 227.011719 260.8125 C 226.792969 261.027344 226.542969 261.195312 226.261719 261.3125 C 225.976562 261.429688 225.679688 261.488281 225.375 261.488281 Z M 225.375 261.488281 " fill-opacity="1" fill-rule="nonzero"/><path fill="#c5e5ff" d="M 124.976562 223.867188 C 124.671875 223.867188 124.378906 223.808594 124.09375 223.691406 C 123.8125 223.574219 123.5625 223.40625 123.34375 223.191406 C 123.128906 222.976562 122.960938 222.726562 122.84375 222.441406 C 122.726562 222.160156 122.667969 221.867188 122.667969 221.5625 L 122.667969 217.429688 C 122.667969 217.121094 122.726562 216.828125 122.84375 216.546875 C 122.960938 216.265625 123.128906 216.015625 123.34375 215.796875 C 123.5625 215.582031 123.8125 215.414062 124.09375 215.296875 C 124.378906 215.179688 124.671875 215.125 124.976562 215.125 C 125.285156 215.125 125.578125 215.179688 125.863281 215.296875 C 126.144531 215.414062 126.394531 215.582031 126.613281 215.796875 C 126.828125 216.015625 126.996094 216.265625 127.113281 216.546875 C 127.230469 216.828125 127.289062 217.121094 127.289062 217.429688 L 127.289062 221.5625 C 127.289062 221.867188 127.230469 222.160156 127.113281 222.441406 C 126.996094 222.726562 126.828125 222.976562 126.613281 223.191406 C 126.394531 223.40625 126.144531 223.574219 125.863281 223.691406 C 125.578125 223.808594 125.285156 223.867188 124.976562 223.867188 Z M 124.910156 210.507812 C 124.605469 210.488281 124.3125 210.410156 124.039062 210.273438 C 123.765625 210.140625 123.527344 209.957031 123.324219 209.726562 C 123.125 209.496094 122.972656 209.238281 122.875 208.945312 C 122.777344 208.65625 122.738281 208.359375 122.757812 208.054688 C 122.847656 206.804688 122.992188 205.558594 123.195312 204.324219 C 123.402344 203.085938 123.664062 201.859375 123.984375 200.648438 C 124.300781 199.433594 124.679688 198.238281 125.109375 197.0625 C 125.542969 195.886719 126.027344 194.730469 126.566406 193.597656 C 127.109375 192.464844 127.699219 191.359375 128.34375 190.285156 C 128.988281 189.207031 129.683594 188.164062 130.425781 187.152344 C 131.167969 186.140625 131.953125 185.164062 132.789062 184.226562 C 133.621094 183.289062 134.5 182.390625 135.417969 181.535156 C 136.335938 180.679688 137.292969 179.867188 138.285156 179.101562 C 139.28125 178.332031 140.308594 177.613281 141.371094 176.945312 C 142.433594 176.273438 143.523438 175.652344 144.644531 175.085938 C 145.761719 174.515625 146.90625 174.003906 148.078125 173.539062 C 149.246094 173.078125 150.433594 172.671875 151.640625 172.324219 C 152.847656 171.972656 154.066406 171.679688 155.300781 171.441406 C 156.535156 171.207031 157.777344 171.027344 159.027344 170.910156 C 160.28125 170.789062 161.535156 170.726562 162.789062 170.726562 L 210.320312 170.726562 C 210.953125 170.722656 211.578125 170.660156 212.199219 170.539062 C 212.816406 170.414062 213.417969 170.234375 214.003906 169.992188 C 214.585938 169.75 215.140625 169.453125 215.664062 169.105469 C 216.191406 168.753906 216.675781 168.355469 217.125 167.910156 C 217.570312 167.464844 217.96875 166.980469 218.320312 166.457031 C 218.671875 165.929688 218.96875 165.378906 219.210938 164.796875 C 219.453125 164.214844 219.632812 163.613281 219.757812 162.996094 C 219.882812 162.378906 219.945312 161.753906 219.945312 161.125 L 219.945312 99.53125 C 219.945312 98.992188 219.902344 98.460938 219.816406 97.929688 C 219.730469 97.398438 219.597656 96.882812 219.421875 96.375 C 219.246094 95.867188 219.027344 95.375 218.769531 94.90625 C 218.511719 94.433594 218.214844 93.988281 217.882812 93.566406 C 217.546875 93.144531 217.179688 92.753906 216.78125 92.394531 C 216.378906 92.035156 215.953125 91.710938 215.496094 91.421875 C 215.042969 91.136719 214.566406 90.886719 214.070312 90.679688 C 213.574219 90.472656 213.0625 90.308594 212.539062 90.1875 L 211.917969 90.039062 C 211.621094 89.96875 211.351562 89.839844 211.105469 89.664062 C 210.859375 89.484375 210.660156 89.265625 210.5 89.003906 C 210.339844 88.746094 210.238281 88.46875 210.1875 88.167969 C 210.140625 87.867188 210.152344 87.570312 210.21875 87.273438 C 210.289062 86.980469 210.414062 86.707031 210.589844 86.460938 C 210.765625 86.214844 210.984375 86.011719 211.242188 85.847656 C 211.5 85.6875 211.777344 85.582031 212.078125 85.527344 C 212.375 85.476562 212.675781 85.484375 212.972656 85.550781 L 213.59375 85.695312 C 214.367188 85.875 215.125 86.117188 215.859375 86.425781 C 216.597656 86.730469 217.300781 87.097656 217.976562 87.523438 C 218.648438 87.949219 219.28125 88.429688 219.875 88.960938 C 220.46875 89.492188 221.011719 90.070312 221.507812 90.695312 C 222 91.316406 222.441406 91.980469 222.824219 92.675781 C 223.207031 93.375 223.527344 94.101562 223.789062 94.851562 C 224.050781 95.605469 224.246094 96.371094 224.375 97.15625 C 224.503906 97.941406 224.570312 98.734375 224.566406 99.527344 L 224.566406 161.121094 C 224.566406 162.054688 224.472656 162.976562 224.289062 163.890625 C 224.105469 164.808594 223.835938 165.695312 223.476562 166.558594 C 223.117188 167.417969 222.679688 168.238281 222.160156 169.011719 C 221.640625 169.789062 221.050781 170.507812 220.390625 171.164062 C 219.726562 171.824219 219.007812 172.414062 218.230469 172.933594 C 217.453125 173.453125 216.632812 173.890625 215.769531 174.246094 C 214.90625 174.605469 214.015625 174.875 213.101562 175.058594 C 212.183594 175.238281 211.257812 175.332031 210.320312 175.332031 L 162.789062 175.332031 C 161.679688 175.335938 160.570312 175.390625 159.460938 175.496094 C 158.355469 175.601562 157.257812 175.757812 156.164062 175.96875 C 155.070312 176.175781 153.992188 176.4375 152.925781 176.746094 C 151.855469 177.058594 150.804688 177.414062 149.773438 177.824219 C 148.738281 178.234375 147.726562 178.6875 146.734375 179.191406 C 145.742188 179.695312 144.777344 180.242188 143.839844 180.835938 C 142.898438 181.429688 141.988281 182.066406 141.109375 182.742188 C 140.230469 183.421875 139.382812 184.140625 138.570312 184.898438 C 137.757812 185.65625 136.984375 186.449219 136.246094 187.277344 C 135.507812 188.109375 134.808594 188.972656 134.152344 189.867188 C 133.496094 190.761719 132.882812 191.683594 132.3125 192.636719 C 131.742188 193.589844 131.21875 194.566406 130.742188 195.570312 C 130.261719 196.570312 129.832031 197.59375 129.449219 198.632812 C 129.066406 199.675781 128.734375 200.734375 128.453125 201.808594 C 128.171875 202.878906 127.9375 203.964844 127.757812 205.058594 C 127.574219 206.152344 127.445312 207.253906 127.371094 208.359375 C 127.347656 208.664062 127.269531 208.957031 127.136719 209.230469 C 127 209.503906 126.816406 209.742188 126.585938 209.945312 C 126.355469 210.144531 126.09375 210.292969 125.804688 210.394531 C 125.515625 210.492188 125.214844 210.53125 124.910156 210.507812 Z M 124.910156 210.507812 " fill-opacity="1" fill-rule="nonzero"/><path fill="#000000" d="M 299.613281 155.988281 C 299.265625 154.515625 298.792969 153.078125 298.203125 151.683594 C 297.609375 150.285156 296.90625 148.945312 296.089844 147.667969 C 295.273438 146.390625 294.359375 145.1875 293.339844 144.0625 C 292.320312 142.9375 291.21875 141.902344 290.027344 140.960938 C 288.832031 140.019531 287.570312 139.183594 286.238281 138.453125 C 284.910156 137.726562 283.523438 137.109375 282.089844 136.613281 C 280.65625 136.113281 279.1875 135.738281 277.691406 135.484375 C 276.191406 135.230469 274.683594 135.101562 273.164062 135.101562 L 237.496094 135.101562 L 237.496094 124.433594 C 237.480469 124.140625 237.40625 123.859375 237.285156 123.59375 C 237.160156 123.328125 236.992188 123.09375 236.777344 122.894531 C 236.5625 122.691406 236.320312 122.535156 236.046875 122.429688 C 235.777344 122.320312 235.492188 122.265625 235.199219 122.261719 C 234.90625 122.261719 234.621094 122.316406 234.347656 122.421875 C 234.074219 122.527344 233.828125 122.679688 233.613281 122.882812 C 233.398438 123.082031 233.230469 123.3125 233.101562 123.578125 C 232.976562 123.84375 232.902344 124.121094 232.882812 124.414062 C 232.878906 124.417969 232.875 124.425781 232.875 124.433594 L 232.875 161.125 C 232.871094 161.863281 232.832031 162.597656 232.757812 163.332031 C 232.683594 164.0625 232.574219 164.789062 232.425781 165.511719 C 232.28125 166.234375 232.101562 166.949219 231.886719 167.652344 C 231.667969 168.355469 231.417969 169.046875 231.136719 169.726562 C 230.851562 170.40625 230.535156 171.074219 230.1875 171.722656 C 229.835938 172.371094 229.457031 173 229.046875 173.613281 C 228.636719 174.226562 228.195312 174.816406 227.726562 175.386719 C 227.261719 175.953125 226.765625 176.5 226.242188 177.019531 C 225.71875 177.539062 225.175781 178.035156 224.605469 178.503906 C 224.035156 178.96875 223.441406 179.410156 222.828125 179.816406 C 222.214844 180.226562 221.582031 180.605469 220.933594 180.953125 C 220.28125 181.304688 219.617188 181.617188 218.933594 181.902344 C 218.253906 182.183594 217.558594 182.433594 216.855469 182.648438 C 216.148438 182.863281 215.433594 183.046875 214.710938 183.191406 C 213.984375 183.335938 213.257812 183.445312 212.523438 183.523438 C 211.789062 183.597656 211.050781 183.632812 210.3125 183.636719 L 162.789062 183.636719 C 161.898438 183.636719 161.011719 183.679688 160.125 183.765625 C 159.238281 183.851562 158.359375 183.980469 157.484375 184.15625 C 156.609375 184.328125 155.746094 184.542969 154.894531 184.800781 C 154.042969 185.058594 153.207031 185.355469 152.382812 185.695312 C 151.558594 186.035156 150.757812 186.414062 149.972656 186.832031 C 149.183594 187.253906 148.421875 187.707031 147.683594 188.203125 C 146.941406 188.695312 146.226562 189.222656 145.539062 189.789062 C 144.851562 190.351562 144.191406 190.945312 143.5625 191.574219 C 142.933594 192.203125 142.335938 192.859375 141.769531 193.546875 C 141.207031 194.234375 140.675781 194.949219 140.179688 195.6875 C 139.6875 196.425781 139.230469 197.1875 138.808594 197.96875 C 138.390625 198.753906 138.011719 199.554688 137.671875 200.378906 C 137.328125 201.199219 137.03125 202.035156 136.773438 202.882812 C 136.515625 203.734375 136.296875 204.59375 136.125 205.464844 C 135.953125 206.339844 135.820312 207.214844 135.734375 208.101562 C 135.648438 208.984375 135.605469 209.871094 135.605469 210.757812 L 135.605469 232.164062 L 99.953125 232.164062 C 98.6875 232.167969 97.433594 232.070312 96.1875 231.863281 C 94.941406 231.65625 93.722656 231.347656 92.527344 230.9375 C 91.335938 230.527344 90.183594 230.019531 89.078125 229.414062 C 87.96875 228.808594 86.917969 228.113281 85.929688 227.332031 C 84.9375 226.550781 84.019531 225.691406 83.175781 224.753906 C 82.332031 223.816406 81.570312 222.816406 80.894531 221.753906 C 80.21875 220.6875 79.636719 219.574219 79.152344 218.410156 C 78.664062 217.25 78.277344 216.054688 77.992188 214.828125 C 76.695312 209.425781 75.765625 203.964844 75.199219 198.4375 C 75.167969 198.132812 75.082031 197.847656 74.933594 197.578125 C 74.789062 197.308594 74.597656 197.078125 74.359375 196.882812 C 74.121094 196.691406 73.855469 196.550781 73.5625 196.460938 C 73.269531 196.375 72.96875 196.347656 72.664062 196.378906 C 72.359375 196.410156 72.070312 196.496094 71.800781 196.640625 C 71.53125 196.789062 71.300781 196.980469 71.105469 197.214844 C 70.910156 197.453125 70.769531 197.71875 70.683594 198.011719 C 70.59375 198.304688 70.566406 198.605469 70.597656 198.910156 C 71.183594 204.632812 72.148438 210.292969 73.492188 215.886719 C 73.839844 217.363281 74.308594 218.800781 74.902344 220.199219 C 75.492188 221.59375 76.195312 222.933594 77.011719 224.214844 C 77.828125 225.492188 78.746094 226.695312 79.761719 227.824219 C 80.78125 228.949219 81.886719 229.984375 83.078125 230.921875 C 84.273438 231.863281 85.535156 232.699219 86.867188 233.429688 C 88.199219 234.160156 89.585938 234.773438 91.019531 235.273438 C 92.457031 235.769531 93.925781 236.144531 95.421875 236.398438 C 96.921875 236.648438 98.433594 236.773438 99.953125 236.773438 L 135.609375 236.773438 L 135.609375 272.351562 C 135.609375 273.890625 135.738281 275.421875 136 276.9375 C 136.261719 278.457031 136.648438 279.941406 137.160156 281.390625 C 137.675781 282.84375 138.308594 284.242188 139.058594 285.585938 C 139.8125 286.929688 140.671875 288.199219 141.640625 289.398438 C 142.613281 290.597656 143.675781 291.703125 144.832031 292.722656 C 145.992188 293.738281 147.226562 294.652344 148.542969 295.457031 C 149.855469 296.265625 151.230469 296.953125 152.660156 297.527344 C 154.09375 298.101562 155.5625 298.550781 157.070312 298.875 C 161.394531 299.570312 183.542969 306.226562 216.214844 298.839844 C 217.714844 298.507812 219.171875 298.050781 220.59375 297.46875 C 222.015625 296.890625 223.378906 296.195312 224.683594 295.386719 C 225.988281 294.578125 227.210938 293.664062 228.363281 292.648438 C 229.511719 291.628906 230.566406 290.523438 231.527344 289.328125 C 232.488281 288.132812 233.339844 286.867188 234.085938 285.527344 C 234.832031 284.1875 235.460938 282.796875 235.96875 281.351562 C 236.476562 279.90625 236.863281 278.425781 237.121094 276.917969 C 237.378906 275.40625 237.507812 273.886719 237.507812 272.351562 L 237.507812 236.773438 L 248.609375 236.773438 C 248.914062 236.773438 249.210938 236.714844 249.492188 236.597656 C 249.777344 236.480469 250.027344 236.316406 250.242188 236.097656 C 250.460938 235.882812 250.625 235.632812 250.742188 235.351562 C 250.859375 235.070312 250.917969 234.773438 250.917969 234.46875 C 250.917969 234.164062 250.859375 233.871094 250.742188 233.585938 C 250.625 233.304688 250.460938 233.054688 250.242188 232.839844 C 250.027344 232.621094 249.777344 232.457031 249.492188 232.339844 C 249.210938 232.222656 248.914062 232.164062 248.609375 232.164062 L 186.554688 232.164062 C 186.25 232.164062 185.953125 232.222656 185.671875 232.339844 C 185.386719 232.457031 185.136719 232.621094 184.921875 232.839844 C 184.703125 233.054688 184.539062 233.304688 184.421875 233.585938 C 184.304688 233.871094 184.246094 234.164062 184.246094 234.46875 C 184.246094 234.773438 184.304688 235.070312 184.421875 235.351562 C 184.539062 235.632812 184.703125 235.882812 184.921875 236.097656 C 185.136719 236.316406 185.386719 236.480469 185.671875 236.597656 C 185.953125 236.714844 186.25 236.773438 186.554688 236.773438 L 232.882812 236.773438 L 232.882812 272.351562 C 232.890625 273.636719 232.785156 274.914062 232.570312 276.179688 C 232.355469 277.445312 232.035156 278.683594 231.609375 279.894531 C 231.179688 281.105469 230.652344 282.273438 230.023438 283.390625 C 229.394531 284.511719 228.675781 285.570312 227.863281 286.570312 C 227.054688 287.566406 226.164062 288.488281 225.191406 289.332031 C 224.222656 290.175781 223.1875 290.929688 222.089844 291.597656 C 220.988281 292.265625 219.839844 292.832031 218.640625 293.300781 C 217.445312 293.769531 216.214844 294.136719 214.953125 294.394531 C 205.617188 296.574219 196.15625 297.667969 186.570312 297.667969 C 176.984375 297.671875 167.519531 296.582031 158.1875 294.402344 C 146.488281 291.636719 140.226562 282.175781 140.226562 272.351562 L 140.226562 210.753906 C 140.230469 210.019531 140.269531 209.285156 140.34375 208.550781 C 140.417969 207.820312 140.527344 207.089844 140.671875 206.367188 C 140.820312 205.648438 141 204.933594 141.214844 204.230469 C 141.429688 203.523438 141.679688 202.832031 141.964844 202.152344 C 142.246094 201.472656 142.5625 200.808594 142.914062 200.160156 C 143.261719 199.507812 143.640625 198.878906 144.050781 198.265625 C 144.460938 197.652344 144.902344 197.0625 145.371094 196.496094 C 145.839844 195.925781 146.335938 195.378906 146.855469 194.859375 C 147.378906 194.339844 147.925781 193.84375 148.496094 193.375 C 149.066406 192.910156 149.65625 192.46875 150.273438 192.0625 C 150.886719 191.652344 151.515625 191.273438 152.167969 190.925781 C 152.820312 190.574219 153.484375 190.261719 154.167969 189.976562 C 154.847656 189.695312 155.542969 189.445312 156.246094 189.230469 C 156.953125 189.015625 157.667969 188.835938 158.390625 188.6875 C 159.117188 188.542969 159.84375 188.433594 160.578125 188.359375 C 161.3125 188.285156 162.050781 188.246094 162.789062 188.246094 L 210.324219 188.246094 C 211.214844 188.246094 212.101562 188.199219 212.988281 188.113281 C 213.871094 188.027344 214.753906 187.894531 215.625 187.722656 C 216.5 187.546875 217.359375 187.332031 218.210938 187.074219 C 219.0625 186.816406 219.902344 186.519531 220.722656 186.175781 C 221.546875 185.835938 222.351562 185.457031 223.136719 185.039062 C 223.917969 184.621094 224.683594 184.164062 225.421875 183.671875 C 226.164062 183.175781 226.875 182.648438 227.566406 182.085938 C 228.253906 181.523438 228.910156 180.925781 229.542969 180.296875 C 230.171875 179.671875 230.765625 179.011719 231.332031 178.328125 C 231.898438 177.640625 232.425781 176.925781 232.921875 176.1875 C 233.414062 175.449219 233.875 174.6875 234.292969 173.90625 C 234.710938 173.121094 235.09375 172.320312 235.433594 171.5 C 235.773438 170.679688 236.074219 169.84375 236.332031 168.996094 C 236.589844 168.144531 236.808594 167.285156 236.980469 166.414062 C 237.15625 165.542969 237.285156 164.664062 237.375 163.78125 C 237.460938 162.898438 237.503906 162.011719 237.503906 161.121094 L 237.503906 139.714844 L 273.164062 139.714844 C 274.433594 139.707031 275.699219 139.8125 276.953125 140.019531 C 278.207031 140.230469 279.433594 140.542969 280.632812 140.960938 C 281.835938 141.378906 282.992188 141.894531 284.105469 142.507812 C 285.21875 143.121094 286.269531 143.824219 287.261719 144.617188 C 288.257812 145.410156 289.175781 146.28125 290.019531 147.226562 C 290.863281 148.175781 291.625 149.1875 292.296875 150.265625 C 292.96875 151.34375 293.546875 152.46875 294.027344 153.644531 C 294.507812 154.816406 294.886719 156.023438 295.160156 157.261719 C 295.191406 157.367188 295.214844 157.46875 295.234375 157.574219 C 299.933594 177.496094 299.320312 198.613281 295.113281 214.816406 C 294.828125 216.046875 294.445312 217.242188 293.957031 218.402344 C 293.46875 219.566406 292.886719 220.679688 292.214844 221.746094 C 291.539062 222.8125 290.777344 223.8125 289.933594 224.75 C 289.085938 225.6875 288.167969 226.546875 287.179688 227.328125 C 286.1875 228.109375 285.140625 228.804688 284.03125 229.410156 C 282.921875 230.015625 281.773438 230.523438 280.578125 230.9375 C 279.382812 231.347656 278.164062 231.65625 276.917969 231.863281 C 275.671875 232.070312 274.417969 232.167969 273.152344 232.164062 L 267.089844 232.164062 C 266.785156 232.164062 266.488281 232.222656 266.207031 232.339844 C 265.921875 232.457031 265.671875 232.621094 265.457031 232.839844 C 265.238281 233.054688 265.074219 233.304688 264.957031 233.585938 C 264.839844 233.871094 264.78125 234.164062 264.78125 234.46875 C 264.78125 234.773438 264.839844 235.070312 264.957031 235.351562 C 265.074219 235.632812 265.238281 235.882812 265.457031 236.097656 C 265.671875 236.316406 265.921875 236.480469 266.207031 236.597656 C 266.488281 236.714844 266.785156 236.773438 267.089844 236.773438 L 273.152344 236.773438 C 274.675781 236.773438 276.183594 236.648438 277.683594 236.398438 C 279.183594 236.144531 280.652344 235.769531 282.089844 235.269531 C 283.527344 234.773438 284.910156 234.15625 286.242188 233.425781 C 287.578125 232.695312 288.839844 231.859375 290.03125 230.917969 C 291.222656 229.976562 292.328125 228.941406 293.347656 227.8125 C 294.367188 226.6875 295.285156 225.480469 296.097656 224.203125 C 296.914062 222.921875 297.617188 221.582031 298.207031 220.183594 C 298.796875 218.785156 299.265625 217.34375 299.613281 215.867188 C 305.363281 191.707031 303.226562 175.597656 299.613281 155.988281 Z M 299.613281 155.988281 " fill-opacity="1" fill-rule="nonzero"/><path fill="#000000" d="M 260.164062 234.46875 C 260.164062 234.773438 260.105469 235.070312 259.988281 235.351562 C 259.871094 235.632812 259.703125 235.882812 259.484375 236.097656 C 259.269531 236.316406 259.019531 236.480469 258.734375 236.597656 C 258.453125 236.714844 258.15625 236.773438 257.851562 236.773438 C 257.546875 236.773438 257.25 236.714844 256.96875 236.597656 C 256.683594 236.480469 256.433594 236.316406 256.21875 236.097656 C 256 235.882812 255.835938 235.632812 255.71875 235.351562 C 255.601562 235.070312 255.542969 234.773438 255.542969 234.46875 C 255.542969 234.164062 255.601562 233.871094 255.71875 233.585938 C 255.835938 233.304688 256 233.054688 256.21875 232.839844 C 256.433594 232.621094 256.683594 232.457031 256.96875 232.339844 C 257.25 232.222656 257.546875 232.164062 257.851562 232.164062 C 258.15625 232.164062 258.453125 232.222656 258.734375 232.339844 C 259.019531 232.457031 259.269531 232.621094 259.484375 232.839844 C 259.703125 233.054688 259.871094 233.304688 259.988281 233.585938 C 260.105469 233.871094 260.164062 234.164062 260.164062 234.46875 Z M 260.164062 234.46875 " fill-opacity="1" fill-rule="nonzero"/><path fill="#000000" d="M 235.195312 112.90625 C 234.886719 112.902344 234.59375 112.960938 234.308594 113.078125 C 234.023438 113.191406 233.773438 113.359375 233.558594 113.574219 C 233.339844 113.789062 233.171875 114.039062 233.054688 114.320312 C 232.933594 114.605469 232.875 114.898438 232.875 115.203125 C 232.875 115.511719 232.933594 115.804688 233.046875 116.085938 C 233.164062 116.371094 233.332031 116.621094 233.546875 116.835938 C 233.765625 117.054688 234.015625 117.222656 234.296875 117.339844 C 234.582031 117.457031 234.875 117.515625 235.183594 117.515625 C 235.488281 117.515625 235.785156 117.457031 236.066406 117.339844 C 236.351562 117.222656 236.601562 117.058594 236.816406 116.839844 C 237.035156 116.625 237.203125 116.375 237.320312 116.09375 C 237.4375 115.808594 237.496094 115.515625 237.496094 115.210938 C 237.496094 114.90625 237.4375 114.613281 237.320312 114.332031 C 237.203125 114.050781 237.035156 113.800781 236.820312 113.585938 C 236.605469 113.371094 236.355469 113.203125 236.074219 113.085938 C 235.792969 112.96875 235.5 112.90625 235.195312 112.90625 Z M 235.195312 112.90625 " fill-opacity="1" fill-rule="nonzero"/><path fill="#000000" d="M 72.382812 182.558594 C 72.679688 182.558594 72.964844 182.503906 73.238281 182.394531 C 73.515625 182.285156 73.757812 182.128906 73.972656 181.925781 C 74.191406 181.722656 74.359375 181.488281 74.484375 181.21875 C 74.605469 180.949219 74.675781 180.667969 74.691406 180.371094 L 74.691406 180.355469 C 75.050781 172.484375 76.148438 164.71875 77.992188 157.058594 C 78.277344 155.832031 78.664062 154.636719 79.148438 153.472656 C 79.636719 152.308594 80.21875 151.195312 80.894531 150.128906 C 81.566406 149.066406 82.328125 148.0625 83.171875 147.128906 C 84.019531 146.191406 84.9375 145.332031 85.925781 144.546875 C 86.917969 143.765625 87.964844 143.070312 89.074219 142.464844 C 90.183594 141.859375 91.332031 141.351562 92.527344 140.941406 C 93.722656 140.527344 94.941406 140.21875 96.1875 140.015625 C 97.433594 139.808594 98.6875 139.707031 99.953125 139.714844 L 186.554688 139.714844 C 186.859375 139.714844 187.15625 139.65625 187.4375 139.539062 C 187.722656 139.421875 187.972656 139.253906 188.1875 139.039062 C 188.40625 138.820312 188.574219 138.570312 188.691406 138.289062 C 188.808594 138.007812 188.867188 137.714844 188.867188 137.40625 C 188.867188 137.101562 188.808594 136.808594 188.691406 136.523438 C 188.574219 136.242188 188.40625 135.992188 188.1875 135.777344 C 187.972656 135.5625 187.722656 135.394531 187.4375 135.277344 C 187.15625 135.160156 186.859375 135.101562 186.554688 135.101562 L 140.230469 135.101562 L 140.230469 99.53125 C 140.226562 98.25 140.328125 96.976562 140.542969 95.710938 C 140.753906 94.445312 141.074219 93.207031 141.5 92 C 141.929688 90.789062 142.453125 89.625 143.082031 88.503906 C 143.707031 87.382812 144.425781 86.324219 145.238281 85.328125 C 146.046875 84.332031 146.933594 83.410156 147.902344 82.566406 C 148.871094 81.722656 149.902344 80.96875 151 80.300781 C 152.097656 79.632812 153.246094 79.0625 154.441406 78.59375 C 155.636719 78.121094 156.867188 77.757812 158.125 77.496094 C 177.738281 72.886719 198.292969 73.355469 215.058594 77.515625 C 216.3125 77.78125 217.535156 78.148438 218.726562 78.621094 C 219.917969 79.09375 221.058594 79.667969 222.152344 80.335938 C 223.246094 81.003906 224.273438 81.757812 225.238281 82.601562 C 226.203125 83.445312 227.085938 84.367188 227.890625 85.363281 C 228.695312 86.355469 229.410156 87.414062 230.035156 88.53125 C 230.660156 89.648438 231.183594 90.808594 231.609375 92.015625 C 232.035156 93.222656 232.351562 94.457031 232.566406 95.71875 C 232.78125 96.980469 232.882812 98.25 232.878906 99.527344 L 232.878906 105.984375 C 232.878906 106.289062 232.9375 106.585938 233.054688 106.867188 C 233.175781 107.148438 233.34375 107.398438 233.558594 107.613281 C 233.777344 107.828125 234.027344 107.996094 234.308594 108.113281 C 234.59375 108.230469 234.886719 108.289062 235.195312 108.289062 C 235.5 108.289062 235.796875 108.230469 236.078125 108.113281 C 236.363281 107.996094 236.613281 107.828125 236.828125 107.613281 C 237.046875 107.398438 237.214844 107.148438 237.332031 106.867188 C 237.449219 106.585938 237.507812 106.289062 237.507812 105.984375 L 237.5 99.527344 C 237.5 87.574219 229.636719 76.167969 215.925781 72.980469 C 206.246094 70.722656 196.433594 69.59375 186.492188 69.601562 C 176.550781 69.605469 166.742188 70.742188 157.0625 73.007812 C 155.554688 73.332031 154.085938 73.78125 152.652344 74.355469 C 151.222656 74.929688 149.851562 75.621094 148.539062 76.429688 C 147.226562 77.238281 145.988281 78.148438 144.832031 79.167969 C 143.675781 80.183594 142.609375 81.289062 141.644531 82.488281 C 140.675781 83.6875 139.8125 84.957031 139.0625 86.300781 C 138.308594 87.644531 137.675781 89.042969 137.164062 90.492188 C 136.648438 91.945312 136.261719 93.429688 136 94.945312 C 135.742188 96.460938 135.609375 97.988281 135.609375 99.527344 L 135.609375 135.097656 L 99.953125 135.097656 C 88.09375 135.097656 76.621094 142.832031 73.351562 156.578125 C 71.53125 164.332031 70.4375 172.191406 70.070312 180.148438 C 70.058594 180.460938 70.105469 180.765625 70.214844 181.0625 C 70.328125 181.355469 70.492188 181.617188 70.710938 181.847656 C 70.925781 182.074219 71.183594 182.25 71.472656 182.375 C 71.761719 182.496094 72.066406 182.558594 72.382812 182.558594 Z M 72.382812 182.558594 " fill-opacity="1" fill-rule="nonzero"/><g clip-path="url(#7f406c8ea1)"><path fill="#000000" d="M 72.363281 191.78125 C 72.667969 191.769531 72.960938 191.703125 73.242188 191.578125 C 73.519531 191.453125 73.765625 191.28125 73.976562 191.058594 C 74.1875 190.835938 74.347656 190.582031 74.457031 190.296875 C 74.566406 190.011719 74.617188 189.714844 74.609375 189.410156 C 74.605469 189.101562 74.539062 188.808594 74.414062 188.527344 C 74.292969 188.246094 74.117188 188 73.894531 187.789062 C 73.671875 187.578125 73.414062 187.421875 73.128906 187.3125 C 72.839844 187.203125 72.542969 187.15625 72.234375 187.167969 C 71.925781 187.175781 71.632812 187.242188 71.351562 187.367188 C 71.074219 187.492188 70.828125 187.667969 70.617188 187.890625 C 70.40625 188.113281 70.246094 188.367188 70.136719 188.652344 C 70.027344 188.9375 69.976562 189.234375 69.984375 189.539062 C 69.992188 189.84375 70.058594 190.136719 70.183594 190.417969 C 70.3125 190.695312 70.484375 190.941406 70.707031 191.152344 C 70.929688 191.363281 71.1875 191.523438 71.472656 191.628906 C 71.761719 191.738281 72.054688 191.789062 72.363281 191.78125 Z M 72.363281 191.78125 " fill-opacity="1" fill-rule="nonzero"/></g><path fill="#000000" d="M 156.257812 106.757812 C 156.257812 107.417969 156.320312 108.074219 156.449219 108.722656 C 156.578125 109.371094 156.769531 110 157.023438 110.609375 C 157.277344 111.21875 157.585938 111.800781 157.957031 112.347656 C 158.324219 112.898438 158.742188 113.40625 159.210938 113.875 C 159.679688 114.339844 160.1875 114.757812 160.738281 115.125 C 161.289062 115.492188 161.871094 115.800781 162.480469 116.054688 C 163.09375 116.308594 163.722656 116.5 164.371094 116.628906 C 165.023438 116.757812 165.679688 116.820312 166.339844 116.820312 C 167.003906 116.820312 167.65625 116.753906 168.308594 116.625 C 168.957031 116.496094 169.585938 116.308594 170.199219 116.054688 C 170.8125 115.800781 171.390625 115.492188 171.941406 115.125 C 172.492188 114.757812 173.003906 114.339844 173.46875 113.871094 C 173.9375 113.40625 174.355469 112.898438 174.722656 112.347656 C 175.09375 111.796875 175.402344 111.21875 175.65625 110.609375 C 175.910156 109.996094 176.101562 109.367188 176.230469 108.722656 C 176.359375 108.074219 176.421875 107.417969 176.421875 106.757812 C 176.421875 106.097656 176.359375 105.441406 176.230469 104.796875 C 176.101562 104.148438 175.910156 103.519531 175.65625 102.90625 C 175.402344 102.296875 175.089844 101.71875 174.722656 101.167969 C 174.355469 100.617188 173.9375 100.109375 173.46875 99.644531 C 173 99.175781 172.492188 98.757812 171.941406 98.394531 C 171.390625 98.027344 170.808594 97.714844 170.195312 97.464844 C 169.585938 97.210938 168.953125 97.019531 168.304688 96.890625 C 167.65625 96.761719 167 96.699219 166.335938 96.699219 C 165.675781 96.699219 165.019531 96.765625 164.371094 96.894531 C 163.722656 97.023438 163.09375 97.214844 162.480469 97.46875 C 161.871094 97.71875 161.289062 98.03125 160.738281 98.398438 C 160.1875 98.765625 159.679688 99.183594 159.210938 99.648438 C 158.742188 100.117188 158.324219 100.625 157.957031 101.171875 C 157.589844 101.722656 157.28125 102.300781 157.027344 102.910156 C 156.773438 103.519531 156.582031 104.148438 156.453125 104.796875 C 156.320312 105.445312 156.257812 106.097656 156.257812 106.757812 Z M 171.800781 106.757812 C 171.800781 107.117188 171.765625 107.472656 171.695312 107.824219 C 171.625 108.171875 171.523438 108.515625 171.386719 108.84375 C 171.246094 109.175781 171.078125 109.488281 170.878906 109.789062 C 170.679688 110.085938 170.453125 110.359375 170.199219 110.613281 C 169.949219 110.867188 169.671875 111.09375 169.375 111.289062 C 169.074219 111.488281 168.761719 111.65625 168.429688 111.792969 C 168.097656 111.929688 167.753906 112.035156 167.402344 112.105469 C 167.050781 112.175781 166.695312 112.210938 166.339844 112.210938 C 165.980469 112.210938 165.625 112.175781 165.273438 112.105469 C 164.921875 112.035156 164.578125 111.929688 164.246094 111.792969 C 163.917969 111.65625 163.601562 111.488281 163.304688 111.289062 C 163.003906 111.089844 162.730469 110.867188 162.476562 110.613281 C 162.222656 110.359375 161.996094 110.085938 161.796875 109.785156 C 161.597656 109.488281 161.429688 109.175781 161.292969 108.84375 C 161.15625 108.515625 161.050781 108.171875 160.980469 107.820312 C 160.910156 107.472656 160.875 107.117188 160.875 106.757812 C 160.875 106.402344 160.910156 106.046875 160.980469 105.695312 C 161.050781 105.34375 161.15625 105.003906 161.292969 104.671875 C 161.429688 104.34375 161.597656 104.027344 161.796875 103.730469 C 161.996094 103.433594 162.222656 103.15625 162.476562 102.90625 C 162.730469 102.652344 163.007812 102.425781 163.304688 102.226562 C 163.601562 102.027344 163.917969 101.859375 164.25 101.722656 C 164.582031 101.585938 164.921875 101.484375 165.273438 101.414062 C 165.625 101.34375 165.980469 101.308594 166.339844 101.308594 C 166.699219 101.308594 167.054688 101.34375 167.40625 101.414062 C 167.757812 101.484375 168.097656 101.589844 168.429688 101.726562 C 168.761719 101.863281 169.074219 102.03125 169.371094 102.230469 C 169.671875 102.429688 169.945312 102.652344 170.199219 102.90625 C 170.453125 103.160156 170.679688 103.433594 170.878906 103.734375 C 171.078125 104.03125 171.246094 104.34375 171.382812 104.675781 C 171.519531 105.003906 171.625 105.34375 171.695312 105.695312 C 171.765625 106.046875 171.800781 106.402344 171.800781 106.757812 Z M 171.800781 106.757812 " fill-opacity="1" fill-rule="nonzero"/><path fill="#000000" d="M 216.855469 265.125 C 216.855469 264.464844 216.792969 263.808594 216.664062 263.160156 C 216.535156 262.515625 216.34375 261.886719 216.089844 261.273438 C 215.835938 260.664062 215.523438 260.085938 215.15625 259.535156 C 214.789062 258.984375 214.371094 258.476562 213.902344 258.011719 C 213.433594 257.542969 212.925781 257.125 212.375 256.757812 C 211.824219 256.390625 211.242188 256.082031 210.632812 255.828125 C 210.019531 255.574219 209.390625 255.386719 208.742188 255.257812 C 208.089844 255.128906 207.4375 255.0625 206.773438 255.0625 C 206.113281 255.0625 205.457031 255.128906 204.804688 255.257812 C 204.15625 255.382812 203.527344 255.574219 202.914062 255.828125 C 202.304688 256.082031 201.722656 256.390625 201.171875 256.757812 C 200.621094 257.125 200.109375 257.542969 199.644531 258.007812 C 199.175781 258.476562 198.757812 258.984375 198.390625 259.535156 C 198.019531 260.082031 197.710938 260.664062 197.457031 261.273438 C 197.203125 261.882812 197.011719 262.511719 196.882812 263.160156 C 196.753906 263.808594 196.6875 264.464844 196.6875 265.125 C 196.6875 265.785156 196.753906 266.4375 196.882812 267.085938 C 197.011719 267.734375 197.203125 268.363281 197.457031 268.972656 C 197.710938 269.585938 198.019531 270.164062 198.386719 270.714844 C 198.757812 271.261719 199.175781 271.769531 199.644531 272.238281 C 200.109375 272.707031 200.621094 273.121094 201.171875 273.488281 C 201.722656 273.855469 202.300781 274.167969 202.914062 274.417969 C 203.527344 274.671875 204.15625 274.863281 204.804688 274.992188 C 205.453125 275.121094 206.109375 275.183594 206.773438 275.183594 C 207.433594 275.183594 208.089844 275.121094 208.738281 274.988281 C 209.386719 274.859375 210.019531 274.667969 210.628906 274.417969 C 211.242188 274.164062 211.820312 273.851562 212.371094 273.484375 C 212.921875 273.121094 213.429688 272.703125 213.898438 272.234375 C 214.367188 271.769531 214.785156 271.261719 215.152344 270.710938 C 215.519531 270.164062 215.832031 269.582031 216.085938 268.972656 C 216.339844 268.363281 216.53125 267.734375 216.660156 267.085938 C 216.789062 266.4375 216.855469 265.785156 216.855469 265.125 Z M 201.308594 265.125 C 201.308594 264.765625 201.34375 264.414062 201.414062 264.0625 C 201.484375 263.710938 201.589844 263.371094 201.726562 263.039062 C 201.863281 262.707031 202.03125 262.394531 202.230469 262.097656 C 202.429688 261.800781 202.65625 261.523438 202.910156 261.269531 C 203.164062 261.015625 203.4375 260.792969 203.738281 260.59375 C 204.035156 260.394531 204.351562 260.226562 204.683594 260.089844 C 205.011719 259.953125 205.355469 259.847656 205.707031 259.777344 C 206.058594 259.707031 206.414062 259.671875 206.773438 259.671875 C 207.132812 259.671875 207.484375 259.707031 207.839844 259.777344 C 208.191406 259.847656 208.53125 259.953125 208.863281 260.089844 C 209.195312 260.226562 209.507812 260.394531 209.808594 260.59375 C 210.105469 260.789062 210.382812 261.015625 210.636719 261.269531 C 210.886719 261.523438 211.113281 261.796875 211.3125 262.09375 C 211.515625 262.394531 211.683594 262.707031 211.820312 263.039062 C 211.957031 263.367188 212.058594 263.710938 212.128906 264.058594 C 212.199219 264.410156 212.234375 264.765625 212.234375 265.125 C 212.234375 265.480469 212.199219 265.835938 212.128906 266.1875 C 212.058594 266.539062 211.957031 266.878906 211.820312 267.210938 C 211.683594 267.539062 211.515625 267.855469 211.316406 268.152344 C 211.117188 268.449219 210.890625 268.722656 210.636719 268.976562 C 210.382812 269.230469 210.105469 269.457031 209.808594 269.65625 C 209.507812 269.855469 209.195312 270.023438 208.863281 270.160156 C 208.53125 270.296875 208.191406 270.398438 207.839844 270.46875 C 207.488281 270.539062 207.132812 270.574219 206.773438 270.574219 C 206.414062 270.574219 206.058594 270.539062 205.707031 270.46875 C 205.355469 270.398438 205.015625 270.292969 204.683594 270.15625 C 204.351562 270.019531 204.039062 269.851562 203.738281 269.652344 C 203.441406 269.453125 203.167969 269.230469 202.914062 268.976562 C 202.660156 268.722656 202.433594 268.449219 202.234375 268.152344 C 202.035156 267.851562 201.867188 267.539062 201.726562 267.210938 C 201.589844 266.878906 201.488281 266.539062 201.417969 266.1875 C 201.347656 265.835938 201.3125 265.484375 201.308594 265.125 Z M 201.308594 265.125 " fill-opacity="1" fill-rule="nonzero"/></svg>