<svg xmlns="http://www.w3.org/2000/svg" xmlns:xlink="http://www.w3.org/1999/xlink" width="500" zoomAndPan="magnify" viewBox="0 0 375 374.999991" height="500" preserveAspectRatio="xMidYMid meet" version="1.0"><defs><clipPath id="849bf99055"><path d="M 52 92.15625 L 323.546875 92.15625 L 323.546875 282.65625 L 52 282.65625 Z M 52 92.15625 " clip-rule="nonzero"/></clipPath></defs><g clip-path="url(#849bf99055)"><path fill="#0097b2" d="M 192.335938 282.125 C 155.503906 282.125 137.789062 264.484375 124.851562 251.601562 C 122.507812 248.675781 119.832031 246.09375 116.828125 243.851562 C 113.824219 241.609375 110.585938 239.78125 107.117188 238.367188 C 99.363281 236.46875 88.914062 236.339844 76.914062 252.027344 C 76.445312 252.640625 75.925781 253.210938 75.359375 253.738281 C 74.792969 254.265625 74.183594 254.738281 73.539062 255.160156 C 72.890625 255.582031 72.210938 255.945312 71.5 256.25 C 70.789062 256.554688 70.054688 256.796875 69.304688 256.976562 C 68.550781 257.15625 67.789062 257.269531 67.019531 257.316406 C 66.246094 257.367188 65.476562 257.347656 64.707031 257.265625 C 63.9375 257.179688 63.183594 257.03125 62.4375 256.820312 C 61.695312 256.605469 60.976562 256.332031 60.28125 255.996094 C 59.582031 255.65625 58.921875 255.265625 58.292969 254.8125 C 57.664062 254.363281 57.078125 253.863281 56.535156 253.3125 C 55.992188 252.761719 55.5 252.167969 55.0625 251.53125 C 54.621094 250.894531 54.238281 250.226562 53.910156 249.527344 C 53.585938 248.824219 53.320312 248.101562 53.117188 247.355469 C 52.917969 246.609375 52.78125 245.851562 52.707031 245.082031 C 52.636719 244.3125 52.628906 243.539062 52.691406 242.769531 C 52.75 242 52.875 241.238281 53.066406 240.488281 C 63.03125 201.398438 89.378906 180.734375 129.257812 180.734375 C 166.089844 180.734375 183.808594 198.378906 196.746094 211.261719 C 199.089844 214.1875 201.765625 216.769531 204.769531 219.011719 C 207.773438 221.253906 211.011719 223.082031 214.480469 224.496094 C 222.242188 226.390625 232.683594 226.523438 244.683594 210.835938 C 245.152344 210.222656 245.667969 209.652344 246.234375 209.125 C 246.804688 208.597656 247.410156 208.125 248.058594 207.703125 C 248.707031 207.28125 249.386719 206.917969 250.097656 206.613281 C 250.808594 206.308594 251.539062 206.066406 252.292969 205.886719 C 253.042969 205.707031 253.804688 205.59375 254.578125 205.546875 C 255.351562 205.496094 256.121094 205.515625 256.890625 205.597656 C 257.65625 205.679688 258.414062 205.828125 259.15625 206.042969 C 259.902344 206.257812 260.621094 206.53125 261.316406 206.867188 C 262.011719 207.203125 262.675781 207.597656 263.304688 208.050781 C 263.933594 208.5 264.515625 209 265.058594 209.550781 C 265.601562 210.101562 266.09375 210.695312 266.535156 211.332031 C 266.976562 211.964844 267.359375 212.632812 267.6875 213.335938 C 268.011719 214.035156 268.277344 214.761719 268.476562 215.507812 C 268.679688 216.253906 268.816406 217.011719 268.890625 217.78125 C 268.960938 218.550781 268.964844 219.320312 268.90625 220.09375 C 268.84375 220.863281 268.71875 221.625 268.527344 222.375 C 258.566406 261.464844 232.21875 282.125 192.335938 282.125 Z M 107.90625 211.019531 C 109.804688 211.289062 111.6875 211.652344 113.550781 212.113281 C 119.472656 213.980469 125.015625 216.644531 130.179688 220.101562 C 135.339844 223.554688 139.914062 227.667969 143.898438 232.433594 C 155.621094 244.089844 166.671875 255.089844 192.335938 255.089844 C 199.644531 255.242188 206.761719 254.160156 213.691406 251.84375 C 211.789062 251.574219 209.910156 251.210938 208.046875 250.75 C 202.121094 248.878906 196.578125 246.21875 191.417969 242.761719 C 186.253906 239.304688 181.683594 235.195312 177.695312 230.429688 C 165.976562 218.769531 154.925781 207.773438 129.257812 207.773438 C 121.953125 207.621094 114.835938 208.703125 107.90625 211.019531 Z M 246.414062 194.253906 C 209.582031 194.253906 191.851562 176.597656 178.90625 163.710938 C 176.5625 160.789062 173.894531 158.210938 170.890625 155.972656 C 167.890625 153.734375 164.65625 151.90625 161.191406 150.496094 C 153.4375 148.59375 142.988281 148.46875 130.988281 164.15625 C 130.519531 164.769531 130.003906 165.339844 129.433594 165.867188 C 128.867188 166.390625 128.261719 166.867188 127.613281 167.289062 C 126.964844 167.707031 126.285156 168.070312 125.574219 168.378906 C 124.863281 168.683594 124.132812 168.925781 123.378906 169.101562 C 122.628906 169.28125 121.863281 169.398438 121.09375 169.445312 C 120.320312 169.496094 119.550781 169.476562 118.78125 169.394531 C 118.011719 169.308594 117.257812 169.160156 116.515625 168.949219 C 115.769531 168.734375 115.050781 168.460938 114.355469 168.121094 C 113.660156 167.785156 112.996094 167.390625 112.367188 166.941406 C 111.738281 166.492188 111.152344 165.992188 110.609375 165.441406 C 110.070312 164.886719 109.578125 164.296875 109.136719 163.660156 C 108.695312 163.023438 108.3125 162.355469 107.984375 161.65625 C 107.660156 160.953125 107.394531 160.230469 107.191406 159.484375 C 106.992188 158.738281 106.855469 157.980469 106.78125 157.210938 C 106.710938 156.4375 106.707031 155.667969 106.765625 154.898438 C 106.824219 154.125 106.953125 153.367188 107.140625 152.617188 C 117.105469 113.527344 143.453125 92.863281 183.332031 92.863281 C 220.164062 92.863281 237.882812 110.507812 250.820312 123.390625 C 253.164062 126.3125 255.839844 128.898438 258.84375 131.140625 C 261.847656 133.382812 265.085938 135.210938 268.554688 136.625 C 276.316406 138.515625 286.757812 138.652344 298.757812 122.964844 C 299.226562 122.347656 299.742188 121.777344 300.3125 121.253906 C 300.878906 120.726562 301.484375 120.253906 302.132812 119.832031 C 302.78125 119.410156 303.460938 119.046875 304.171875 118.742188 C 304.882812 118.4375 305.613281 118.195312 306.367188 118.015625 C 307.121094 117.835938 307.882812 117.722656 308.652344 117.671875 C 309.425781 117.625 310.195312 117.640625 310.964844 117.726562 C 311.734375 117.808594 312.488281 117.957031 313.230469 118.171875 C 313.976562 118.382812 314.695312 118.660156 315.390625 118.996094 C 316.085938 119.332031 316.75 119.726562 317.378906 120.175781 C 318.007812 120.628906 318.59375 121.128906 319.136719 121.679688 C 319.679688 122.230469 320.167969 122.824219 320.609375 123.460938 C 321.050781 124.09375 321.433594 124.761719 321.761719 125.464844 C 322.085938 126.164062 322.351562 126.890625 322.554688 127.636719 C 322.753906 128.382812 322.890625 129.140625 322.964844 129.910156 C 323.035156 130.679688 323.042969 131.449219 322.980469 132.222656 C 322.921875 132.992188 322.792969 133.753906 322.605469 134.503906 C 312.640625 173.589844 286.292969 194.253906 246.414062 194.253906 Z M 161.980469 123.144531 C 163.878906 123.417969 165.761719 123.78125 167.625 124.242188 C 173.550781 126.109375 179.09375 128.773438 184.253906 132.230469 C 189.414062 135.683594 193.988281 139.796875 197.976562 144.558594 C 209.175781 155.726562 220.746094 167.21875 246.414062 167.21875 C 253.71875 167.371094 260.835938 166.289062 267.765625 163.972656 C 265.867188 163.703125 263.984375 163.335938 262.121094 162.878906 C 256.195312 161.007812 250.652344 158.347656 245.492188 154.890625 C 240.332031 151.433594 235.757812 147.324219 231.773438 142.558594 C 220.050781 130.898438 209 119.902344 183.332031 119.902344 C 176.027344 119.75 168.910156 120.828125 161.980469 123.144531 Z M 161.980469 123.144531 " fill-opacity="1" fill-rule="nonzero"/></g></svg>